<svg width="18" height="17" viewBox="0 0 18 17" fill="none" xmlns="http://www.w3.org/2000/svg">
<path d="M9 4.17884C9.20683 4.17884 9.41164 4.21732 9.60273 4.29207C9.79381 4.36682 9.96744 4.47639 10.1137 4.61452C10.2599 4.75265 10.376 4.91663 10.4551 5.0971C10.5343 5.27757 10.575 5.471 10.575 5.66634C10.575 5.86168 10.5343 6.05511 10.4551 6.23558C10.376 6.41605 10.2599 6.58003 10.1137 6.71816C9.96744 6.85629 9.79381 6.96586 9.60273 7.04061C9.41164 7.11537 9.20683 7.15384 9 7.15384C8.58228 7.15384 8.18168 6.99712 7.88631 6.71816C7.59094 6.4392 7.425 6.06085 7.425 5.66634C7.425 5.27183 7.59094 4.89348 7.88631 4.61452C8.18168 4.33556 8.58228 4.17884 9 4.17884V4.17884ZM9 10.5538C11.2275 10.5538 13.575 11.588 13.575 12.0413V12.8205H4.425V12.0413C4.425 11.588 6.7725 10.5538 9 10.5538V10.5538ZM9 2.83301C7.3425 2.83301 6 4.10092 6 5.66634C6 7.23176 7.3425 8.49967 9 8.49967C10.6575 8.49967 12 7.23176 12 5.66634C12 4.10092 10.6575 2.83301 9 2.83301ZM9 9.20801C6.9975 9.20801 3 10.1572 3 12.0413V14.1663H15V12.0413C15 10.1572 11.0025 9.20801 9 9.20801Z" fill="#05A0A0"/>
</svg>
