<svg width="23" height="23" viewBox="0 0 23 23" fill="none" xmlns="http://www.w3.org/2000/svg">
<path d="M3.81084 9.43033C3.84939 8.95001 4.06744 8.50184 4.42156 8.17507C4.77569 7.84829 5.2399 7.66689 5.72176 7.66699H17.2773C17.7592 7.66689 18.2234 7.84829 18.5775 8.17507C18.9317 8.50184 19.1497 8.95001 19.1883 9.43033L19.9578 19.0137C19.979 19.2774 19.9453 19.5426 19.8589 19.7927C19.7726 20.0428 19.6353 20.2723 19.4559 20.4667C19.2765 20.6612 19.0588 20.8164 18.8164 20.9226C18.5741 21.0287 18.3124 21.0836 18.0478 21.0837H4.95126C4.68668 21.0836 4.42499 21.0287 4.18265 20.9226C3.94032 20.8164 3.72259 20.6612 3.54317 20.4667C3.36376 20.2723 3.22655 20.0428 3.14017 19.7927C3.0538 19.5426 3.02013 19.2774 3.0413 19.0137L3.81084 9.43033V9.43033Z" stroke="#05A0A0" stroke-width="2" stroke-linecap="round" stroke-linejoin="round"/>
<path d="M15.3327 10.542V5.75033C15.3327 4.73366 14.9288 3.75864 14.2099 3.03975C13.491 2.32086 12.516 1.91699 11.4993 1.91699C10.4827 1.91699 9.50766 2.32086 8.78877 3.03975C8.06988 3.75864 7.66602 4.73366 7.66602 5.75033V10.542" stroke="#05A0A0" stroke-width="2" stroke-linecap="round" stroke-linejoin="round"/>
</svg>
