<svg width="23" height="23" viewBox="0 0 23 23" fill="none" xmlns="http://www.w3.org/2000/svg">
<path d="M11.504 6.33403C8.64692 6.33403 6.34243 8.63853 6.34243 11.4956C6.34243 14.3526 8.64692 16.6571 11.504 16.6571C14.361 16.6571 16.6655 14.3526 16.6655 11.4956C16.6655 8.63853 14.361 6.33403 11.504 6.33403ZM11.504 14.8512C9.65767 14.8512 8.14829 13.3463 8.14829 11.4956C8.14829 9.64478 9.65317 8.13989 11.504 8.13989C13.3547 8.13989 14.8596 9.64478 14.8596 11.4956C14.8596 13.3463 13.3502 14.8512 11.504 14.8512ZM18.0805 6.1229C18.0805 6.79224 17.5415 7.32681 16.8766 7.32681C16.2073 7.32681 15.6727 6.78774 15.6727 6.1229C15.6727 5.45806 16.2118 4.91899 16.8766 4.91899C17.5415 4.91899 18.0805 5.45806 18.0805 6.1229ZM21.4991 7.34478C21.4227 5.73208 21.0543 4.30356 19.8729 3.12661C18.6959 1.94966 17.2674 1.5813 15.6547 1.50044C13.9926 1.4061 9.01079 1.4061 7.34868 1.50044C5.74048 1.57681 4.31196 1.94517 3.13052 3.12212C1.94907 4.29907 1.58521 5.72759 1.50435 7.34028C1.41001 9.00239 1.41001 13.9842 1.50435 15.6463C1.58071 17.259 1.94907 18.6875 3.13052 19.8645C4.31196 21.0415 5.73599 21.4098 7.34868 21.4907C9.01079 21.585 13.9926 21.585 15.6547 21.4907C17.2674 21.4143 18.6959 21.0459 19.8729 19.8645C21.0499 18.6875 21.4182 17.259 21.4991 15.6463C21.5934 13.9842 21.5934 9.00689 21.4991 7.34478ZM19.3518 17.4297C19.0014 18.3102 18.3231 18.9885 17.4381 19.3434C16.1129 19.869 12.9684 19.7477 11.504 19.7477C10.0395 19.7477 6.89048 19.8645 5.56978 19.3434C4.68931 18.993 4.01099 18.3147 3.6561 17.4297C3.13052 16.1045 3.25181 12.96 3.25181 11.4956C3.25181 10.0311 3.13501 6.88208 3.6561 5.56138C4.00649 4.68091 4.68481 4.00259 5.56978 3.6477C6.89497 3.12212 10.0395 3.24341 11.504 3.24341C12.9684 3.24341 16.1174 3.12661 17.4381 3.6477C18.3186 3.9981 18.9969 4.67642 19.3518 5.56138C19.8774 6.88657 19.7561 10.0311 19.7561 11.4956C19.7561 12.96 19.8774 16.109 19.3518 17.4297Z" fill="#0F4E4E"/>
</svg>
