<svg width="58" height="40" viewBox="0 0 58 40" fill="none" xmlns="http://www.w3.org/2000/svg">
<rect x="0.5" y="0.5" width="57" height="39" rx="3.5" fill="white" stroke="#F3F3F3"/>
<path fill-rule="evenodd" clip-rule="evenodd" d="M26.4393 20.2562L26.6918 18.6477L26.1293 18.6346H23.4434L25.31 6.76505C25.3158 6.72911 25.3346 6.69575 25.3621 6.67201C25.3897 6.64827 25.4248 6.63525 25.4616 6.63525H29.9906C31.4942 6.63525 32.5318 6.94897 33.0735 7.56826C33.3275 7.85879 33.4892 8.16246 33.5675 8.49653C33.6496 8.84713 33.651 9.26596 33.5709 9.77689L33.5651 9.81405V10.1415L33.8191 10.2858C34.0329 10.3996 34.2029 10.5298 34.3333 10.6788C34.5505 10.9273 34.691 11.2431 34.7504 11.6173C34.8118 12.0022 34.7915 12.4604 34.691 12.979C34.5751 13.5755 34.3878 14.0951 34.1348 14.5202C33.9021 14.9119 33.6057 15.2369 33.2536 15.4886C32.9175 15.7279 32.5183 15.9095 32.0669 16.0257C31.6293 16.1399 31.1306 16.1975 30.5835 16.1975H30.231C29.9791 16.1975 29.7343 16.2886 29.5421 16.4517C29.3494 16.6183 29.222 16.8459 29.1829 17.0947L29.1562 17.2396L28.7101 20.0747L28.6899 20.1787C28.6845 20.2117 28.6753 20.2281 28.6618 20.2392C28.6498 20.2494 28.6324 20.2562 28.6155 20.2562H26.4393Z" fill="#28356A"/>
<path fill-rule="evenodd" clip-rule="evenodd" d="M34.0584 9.85205C34.045 9.93872 34.0294 10.0273 34.0121 10.1183C33.4149 13.1936 31.3714 14.256 28.7618 14.256H27.433C27.1138 14.256 26.8448 14.4883 26.7952 14.8041L25.9221 20.3575C25.8898 20.5649 26.0491 20.7517 26.2577 20.7517H28.6145C28.8935 20.7517 29.1306 20.5484 29.1745 20.2723L29.1976 20.1523L29.6414 17.3283L29.6699 17.1734C29.7133 16.8965 29.951 16.693 30.23 16.693H30.5824C32.8658 16.693 34.6533 15.7634 35.1757 13.073C35.3939 11.9492 35.281 11.0108 34.7035 10.3508C34.5287 10.1518 34.3119 9.9866 34.0584 9.85205Z" fill="#298FC2"/>
<path fill-rule="evenodd" clip-rule="evenodd" d="M33.4334 9.60218C33.3421 9.57546 33.248 9.55132 33.1514 9.52948C33.0543 9.50819 32.9549 9.48934 32.8525 9.47279C32.4943 9.41474 32.1017 9.38721 31.6812 9.38721H28.1314C28.0439 9.38721 27.9609 9.40701 27.8866 9.44282C27.7228 9.52175 27.6013 9.67719 27.5718 9.86748L26.8166 14.6642L26.7949 14.8041C26.8446 14.4883 27.1136 14.256 27.4327 14.256H28.7615C31.3712 14.256 33.4146 13.193 34.0119 10.1183C34.0297 10.0273 34.0447 9.93868 34.0581 9.85202C33.9071 9.77159 33.7434 9.70282 33.5672 9.64423C33.5236 9.62972 33.4787 9.61575 33.4334 9.60218Z" fill="#22284F"/>
<path fill-rule="evenodd" clip-rule="evenodd" d="M27.5717 9.86713C27.6011 9.67684 27.7227 9.5214 27.8865 9.44301C27.9613 9.40707 28.0438 9.38726 28.1313 9.38726H31.6811C32.1016 9.38726 32.4942 9.41493 32.8524 9.47298C32.9548 9.48939 33.0542 9.50838 33.1513 9.52968C33.2479 9.55138 33.342 9.57566 33.4333 9.60224C33.4786 9.6158 33.5235 9.62991 33.5675 9.64388C33.7437 9.70247 33.9075 9.77178 34.0586 9.85167C34.2363 8.71521 34.0571 7.94143 33.4444 7.24076C32.7689 6.46929 31.5498 6.13916 29.9897 6.13916H25.4606C25.142 6.13916 24.8701 6.3715 24.8209 6.68779L22.9345 18.6794C22.8973 18.9166 23.0798 19.1306 23.3183 19.1306H26.1144L27.5717 9.86713Z" fill="#28356A"/>
<path fill-rule="evenodd" clip-rule="evenodd" d="M13.0946 23.521H9.79248C9.56648 23.521 9.3743 23.6857 9.339 23.9094L8.00345 32.4011C7.97695 32.5687 8.10638 32.7197 8.27584 32.7197H9.85225C10.0782 32.7197 10.2704 32.5551 10.3057 32.3309L10.6659 30.0405C10.7006 29.8163 10.8932 29.6517 11.1188 29.6517H12.1641C14.3393 29.6517 15.5946 28.5961 15.9226 26.5043C16.0703 25.5891 15.9288 24.8701 15.5014 24.3665C15.0321 23.8136 14.1997 23.521 13.0946 23.521ZM13.4755 26.6225C13.2949 27.8107 12.3896 27.8107 11.5143 27.8107H11.0159L11.3655 25.5915C11.3863 25.4574 11.5021 25.3587 11.6374 25.3587H11.8658C12.4621 25.3587 13.0246 25.3587 13.3152 25.6995C13.4886 25.9028 13.5416 26.205 13.4755 26.6225Z" fill="#28356A"/>
<path fill-rule="evenodd" clip-rule="evenodd" d="M23.0494 26.5198H21.4682C21.3335 26.5198 21.217 26.6185 21.1963 26.7527L21.1263 27.1962L21.0158 27.0355C20.6735 26.5372 19.91 26.3706 19.1482 26.3706C17.4007 26.3706 15.9082 27.6979 15.6176 29.5597C15.4665 30.4884 15.6813 31.3765 16.2067 31.9958C16.6886 32.5652 17.3781 32.8025 18.1983 32.8025C19.6064 32.8025 20.387 31.8946 20.387 31.8946L20.3166 32.3353C20.29 32.5037 20.4195 32.6548 20.588 32.6548H22.0123C22.2388 32.6548 22.43 32.4902 22.4657 32.266L23.3203 26.8384C23.3474 26.6713 23.2184 26.5198 23.0494 26.5198ZM20.8452 29.6062C20.6927 30.5121 19.9757 31.1203 19.0612 31.1203C18.602 31.1203 18.2351 30.9726 17.9994 30.6928C17.7657 30.4149 17.677 30.0192 17.7512 29.5786C17.8938 28.6804 18.6227 28.0523 19.5233 28.0523C19.9724 28.0523 20.3374 28.202 20.5778 28.4842C20.8187 28.7694 20.9143 29.1675 20.8452 29.6062Z" fill="#28356A"/>
<path fill-rule="evenodd" clip-rule="evenodd" d="M31.3499 26.6558H29.7608C29.6092 26.6558 29.4668 26.7313 29.3809 26.8577L27.1893 30.0951L26.2603 26.984C26.2018 26.7894 26.0228 26.6558 25.8199 26.6558H24.2585C24.0686 26.6558 23.9369 26.8417 23.9972 27.0209L25.7475 32.1719L24.102 34.5015C23.9726 34.685 24.103 34.9373 24.3265 34.9373H25.9136C26.0643 34.9373 26.2052 34.8636 26.2907 34.7398L31.5758 27.0891C31.7024 26.9061 31.5724 26.6558 31.3499 26.6558Z" fill="#28356A"/>
<path fill-rule="evenodd" clip-rule="evenodd" d="M36.6472 23.521H33.3447C33.1192 23.521 32.927 23.6857 32.8917 23.9094L31.5562 32.4011C31.5297 32.5687 31.6591 32.7197 31.8276 32.7197H33.5224C33.6797 32.7197 33.8144 32.6045 33.839 32.4476L34.2181 30.0405C34.2528 29.8163 34.4456 29.6517 34.671 29.6517H35.7159C37.8915 29.6517 39.1464 28.5961 39.4748 26.5043C39.623 25.5891 39.4806 24.8701 39.0532 24.3665C38.5843 23.8136 37.7524 23.521 36.6472 23.521ZM37.0282 26.6225C36.8481 27.8107 35.9427 27.8107 35.0669 27.8107H34.5692L34.9192 25.5915C34.9399 25.4574 35.0548 25.3587 35.1905 25.3587H35.4189C36.0147 25.3587 36.5777 25.3587 36.8683 25.6995C37.0417 25.9028 37.0943 26.205 37.0282 26.6225Z" fill="#298FC2"/>
<path fill-rule="evenodd" clip-rule="evenodd" d="M46.6001 26.5198H45.0197C44.8841 26.5198 44.7687 26.6185 44.7484 26.7527L44.6784 27.1962L44.5673 27.0355C44.225 26.5372 43.4621 26.3706 42.7001 26.3706C40.9528 26.3706 39.4609 27.6979 39.1702 29.5597C39.0196 30.4884 39.2334 31.3765 39.7587 31.9958C40.2416 32.5652 40.93 32.8025 41.7504 32.8025C43.1583 32.8025 43.9391 31.8946 43.9391 31.8946L43.8686 32.3353C43.8421 32.5037 43.9714 32.6548 44.141 32.6548H45.5649C45.7903 32.6548 45.9825 32.4902 46.0178 32.266L46.8728 26.8384C46.8989 26.6713 46.7695 26.5198 46.6001 26.5198ZM44.396 29.6062C44.2444 30.5121 43.5263 31.1203 42.6118 31.1203C42.1536 31.1203 41.7857 30.9726 41.55 30.6928C41.3164 30.4149 41.2285 30.0192 41.3018 29.5786C41.4453 28.6804 42.1734 28.0523 43.0739 28.0523C43.523 28.0523 43.888 28.202 44.1285 28.4842C44.3703 28.7694 44.4659 29.1675 44.396 29.6062Z" fill="#298FC2"/>
<path fill-rule="evenodd" clip-rule="evenodd" d="M48.3334 23.7544L46.9781 32.4015C46.9516 32.5691 47.0809 32.7201 47.2494 32.7201H48.612C48.8385 32.7201 49.0305 32.5555 49.0653 32.3313L50.4018 23.8401C50.4284 23.6725 50.299 23.521 50.1305 23.521H48.6048C48.4701 23.5214 48.3542 23.6203 48.3334 23.7544Z" fill="#298FC2"/>
</svg>
