<svg width="58" height="40" viewBox="0 0 58 40" fill="none" xmlns="http://www.w3.org/2000/svg">
<rect x="0.5" y="0.5" width="57" height="39" rx="3.5" fill="white" stroke="#F3F3F3"/>
<path fill-rule="evenodd" clip-rule="evenodd" d="M21.2495 30.8905V32.3673V33.8442H20.6022V33.4856C20.3969 33.7515 20.0854 33.9185 19.6619 33.9185C18.8271 33.9185 18.1727 33.2699 18.1727 32.3673C18.1727 31.4655 18.8271 30.8162 19.6619 30.8162C20.0854 30.8162 20.3969 30.9831 20.6022 31.2491V30.8905H21.2495ZM19.7425 31.4216C19.1822 31.4216 18.8393 31.8482 18.8393 32.3673C18.8393 32.8865 19.1822 33.313 19.7425 33.313C20.2778 33.313 20.6393 32.9049 20.6393 32.3673C20.6393 31.8298 20.2778 31.4216 19.7425 31.4216ZM43.1234 32.3673C43.1234 31.8482 43.4663 31.4216 44.0266 31.4216C44.5627 31.4216 44.9234 31.8298 44.9234 32.3673C44.9234 32.9049 44.5627 33.313 44.0266 33.313C43.4663 33.313 43.1234 32.8865 43.1234 32.3673ZM45.5343 29.7043V32.3673V33.8442H44.8863V33.4856C44.681 33.7515 44.3695 33.9185 43.946 33.9185C43.1112 33.9185 42.4568 33.2699 42.4568 32.3673C42.4568 31.4655 43.1112 30.8162 43.946 30.8162C44.3695 30.8162 44.681 30.9831 44.8863 31.2491V29.7043H45.5343ZM29.2843 31.3912C29.7013 31.3912 29.9694 31.6508 30.0378 32.1077H28.493C28.5622 31.6812 28.8231 31.3912 29.2843 31.3912ZM27.8144 32.3673C27.8144 31.4464 28.4246 30.8162 29.2971 30.8162C30.1312 30.8162 30.7044 31.4464 30.7108 32.3673C30.7108 32.4536 30.7044 32.5342 30.6979 32.6142H28.4873C28.5807 33.1461 28.9607 33.3378 29.3777 33.3378C29.6764 33.3378 29.9943 33.226 30.2438 33.0287L30.5611 33.5047C30.1996 33.8074 29.789 33.9185 29.3406 33.9185C28.4495 33.9185 27.8144 33.3066 27.8144 32.3673ZM37.1131 32.3673C37.1131 31.8482 37.456 31.4216 38.0163 31.4216C38.5517 31.4216 38.9131 31.8298 38.9131 32.3673C38.9131 32.9049 38.5517 33.313 38.0163 33.313C37.456 33.313 37.1131 32.8865 37.1131 32.3673ZM39.5233 30.8905V32.3673V33.8442H38.876V33.4856C38.67 33.7515 38.3592 33.9185 37.9358 33.9185C37.101 33.9185 36.4466 33.2699 36.4466 32.3673C36.4466 31.4655 37.101 30.8162 37.9358 30.8162C38.3592 30.8162 38.67 30.9831 38.876 31.2491V30.8905H39.5233ZM33.4575 32.3673C33.4575 33.2635 34.0862 33.9185 35.0458 33.9185C35.4942 33.9185 35.7929 33.8194 36.1165 33.5662L35.8057 33.047C35.5626 33.2203 35.3074 33.313 35.0265 33.313C34.5097 33.3066 34.1297 32.936 34.1297 32.3673C34.1297 31.7986 34.5097 31.428 35.0265 31.4216C35.3074 31.4216 35.5626 31.5143 35.8057 31.6876L36.1165 31.1684C35.7929 30.9152 35.4942 30.8162 35.0458 30.8162C34.0862 30.8162 33.4575 31.4712 33.4575 32.3673ZM41.0182 31.2491C41.1865 30.9895 41.4296 30.8162 41.8031 30.8162C41.9343 30.8162 42.1211 30.8409 42.2643 30.8968L42.0647 31.5023C41.9279 31.4464 41.791 31.428 41.6598 31.428C41.2364 31.428 41.0247 31.6996 41.0247 32.1884V33.8442H40.3767V30.8905H41.0182V31.2491ZM24.451 31.1253C24.1395 30.9216 23.7103 30.8162 23.237 30.8162C22.4828 30.8162 21.9973 31.1748 21.9973 31.7619C21.9973 32.2435 22.3587 32.5406 23.0246 32.6333L23.3304 32.6764C23.6854 32.7259 23.8529 32.8186 23.8529 32.9855C23.8529 33.214 23.6162 33.3441 23.1743 33.3441C22.7259 33.3441 22.4022 33.2019 22.1841 33.035L21.879 33.5351C22.234 33.7947 22.6824 33.9185 23.1678 33.9185C24.0276 33.9185 24.5259 33.5167 24.5259 32.9544C24.5259 32.4352 24.1338 32.1636 23.4858 32.071L23.1807 32.0271C22.9005 31.9903 22.676 31.9352 22.676 31.7371C22.676 31.5207 22.8877 31.3912 23.2427 31.3912C23.6227 31.3912 23.9905 31.5334 24.1709 31.6444L24.451 31.1253ZM32.0189 31.2491C32.1864 30.9895 32.4295 30.8162 32.8031 30.8162C32.9342 30.8162 33.121 30.8409 33.2643 30.8968L33.0647 31.5023C32.9278 31.4464 32.7909 31.428 32.6598 31.428C32.2363 31.428 32.0246 31.6996 32.0246 32.1884V33.8442H31.3773V30.8905H32.0189V31.2491ZM27.279 30.8905H26.2204V29.9943H25.566V30.8905H24.9621V31.4775H25.566V32.825C25.566 33.5103 25.834 33.9185 26.5996 33.9185C26.8805 33.9185 27.2041 33.8322 27.4094 33.69L27.2227 33.1397C27.0295 33.2508 26.8178 33.3066 26.6495 33.3066C26.3259 33.3066 26.2204 33.1086 26.2204 32.8122V31.4775H27.279V30.8905ZM17.6003 31.9903V33.8442H16.9459V32.2004C16.9459 31.6996 16.7341 31.4216 16.2922 31.4216C15.8623 31.4216 15.5636 31.694 15.5636 32.2068V33.8442H14.9092V32.2004C14.9092 31.6996 14.6917 31.4216 14.2619 31.4216C13.8192 31.4216 13.5326 31.694 13.5326 32.2068V33.8442H12.8789V30.8905H13.5269V31.2547C13.77 30.9088 14.0808 30.8162 14.3988 30.8162C14.8536 30.8162 15.1772 31.0142 15.3825 31.3417C15.657 30.9272 16.0491 30.8098 16.429 30.8162C17.1519 30.8226 17.6003 31.2922 17.6003 31.9903Z" fill="#231F20"/>
<path d="M34.0469 25.8717H24.2363V8.37842H34.0469V25.8717Z" fill="#FF5F00"/>
<path d="M24.8583 17.1252C24.8583 13.5766 26.5328 10.4156 29.1405 8.37855C27.2336 6.88895 24.8269 5.99986 22.2114 5.99986C16.0194 5.99986 11 10.9808 11 17.1252C11 23.2696 16.0194 28.2505 22.2114 28.2505C24.8269 28.2505 27.2336 27.3614 29.1405 25.8718C26.5328 23.8347 24.8583 20.6738 24.8583 17.1252Z" fill="#EB001B"/>
<path d="M47.2819 17.1252C47.2819 23.2696 42.2625 28.2505 36.0705 28.2505C33.4549 28.2505 31.0483 27.3614 29.1406 25.8718C31.749 23.8347 33.4236 20.6738 33.4236 17.1252C33.4236 13.5766 31.749 10.4156 29.1406 8.37855C31.0483 6.88895 33.4549 5.99986 36.0705 5.99986C42.2625 5.99986 47.2819 10.9808 47.2819 17.1252Z" fill="#F79E1B"/>
</svg>
