<svg width="58" height="40" viewBox="0 0 58 40" fill="none" xmlns="http://www.w3.org/2000/svg">
<rect x="0.5" y="0.5" width="57" height="39" rx="3.5" fill="white" stroke="#F3F3F3"/>
<path fill-rule="evenodd" clip-rule="evenodd" d="M27.9165 24.1182V19.6071V19.6062H30.3569C31.363 19.6068 32.2086 19.2907 32.8936 18.6578C33.5859 18.0571 33.9729 17.1935 33.9532 16.2934C33.9669 15.3982 33.5806 14.541 32.8936 13.9422C32.2146 13.3059 31.3014 12.9587 30.3569 12.9778H26.4395V24.1182H27.9165ZM27.9165 18.2382V14.3494V14.3485H30.3936C30.9457 14.3334 31.4779 14.5487 31.855 14.9396C32.2346 15.2971 32.4487 15.7881 32.4487 16.3009C32.4487 16.8137 32.2346 17.3048 31.855 17.6622C31.4732 18.0449 30.9427 18.254 30.3936 18.2382H27.9165Z" fill="#5F6368"/>
<path fill-rule="evenodd" clip-rule="evenodd" d="M39.9434 17.0951C39.3116 16.5297 38.4498 16.2471 37.3581 16.2471C35.9556 16.2471 34.8966 16.7448 34.181 17.7404L35.4819 18.5342C35.9626 17.8598 36.6156 17.5226 37.4406 17.5226C37.9667 17.5167 38.4757 17.703 38.8663 18.0444C39.2558 18.3564 39.4798 18.8215 39.4764 19.3111V19.6382C38.9088 19.3271 38.1865 19.1715 37.3094 19.1715C36.2819 19.1727 35.4605 19.4062 34.8452 19.872C34.2299 20.3377 33.9223 20.965 33.9223 21.7537C33.9089 22.4719 34.2304 23.1577 34.7975 23.6204C35.381 24.1182 36.1061 24.3671 36.9727 24.3671C37.988 24.3671 38.8015 23.9315 39.4131 23.0604H39.4773V24.1182H40.8902V19.4204C40.8908 18.4355 40.5752 17.6604 39.9434 17.0951ZM35.937 22.7182C35.6275 22.5021 35.445 22.1544 35.447 21.7848C35.447 21.3697 35.648 21.024 36.0526 20.7395C36.4532 20.4592 36.9535 20.3191 37.5535 20.3191C38.3773 20.3191 39.0195 20.4968 39.4801 20.8524C39.4801 21.4533 39.2354 21.9768 38.7461 22.4231C38.3054 22.8501 37.708 23.0905 37.0847 23.0915C36.6691 23.099 36.2636 22.9672 35.937 22.7182Z" fill="#5F6368"/>
<path fill-rule="evenodd" clip-rule="evenodd" d="M49.0006 16.4961L44.0685 27.4783H42.5437L44.374 23.6356L41.1309 16.4961H42.7364L45.0804 21.9716H45.1125L47.3923 16.4961H49.0006Z" fill="#5F6368"/>
<path fill-rule="evenodd" clip-rule="evenodd" d="M21.9486 18.6348C21.9491 18.1987 21.9111 17.7633 21.8348 17.3335H15.6055V19.7984H19.1734C19.0258 20.5939 18.5493 21.2965 17.8541 21.7433V23.3433H19.9835C21.2302 22.2295 21.9486 20.5824 21.9486 18.6348Z" fill="#4285F4"/>
<path fill-rule="evenodd" clip-rule="evenodd" d="M15.605 24.889C17.3875 24.889 18.8884 24.3219 19.9829 23.3441L17.8536 21.7441C17.2609 22.1334 16.4976 22.3556 15.605 22.3556C13.882 22.3556 12.4196 21.2303 11.8967 19.7139H9.70312V21.3628C10.8244 23.5245 13.1079 24.8889 15.605 24.889Z" fill="#34A853"/>
<path fill-rule="evenodd" clip-rule="evenodd" d="M11.8969 19.7139C11.6205 18.9193 11.6205 18.0588 11.8969 17.2641V15.6152H9.70337C8.76554 17.4233 8.76554 19.5547 9.70337 21.3628L11.8969 19.7139Z" fill="#FBBC04"/>
<path fill-rule="evenodd" clip-rule="evenodd" d="M15.605 14.6221C16.547 14.6072 17.4572 14.9521 18.1389 15.5821L20.0242 13.7555C18.8287 12.6675 17.245 12.0702 15.605 12.0888C13.1079 12.0889 10.8244 13.4533 9.70312 15.615L11.8967 17.2639C12.4196 15.7475 13.882 14.6221 15.605 14.6221Z" fill="#EA4335"/>
</svg>
