<svg width="72" height="14" viewBox="0 0 72 14" fill="none" xmlns="http://www.w3.org/2000/svg">
<path d="M11.6084 5.42314L8.36255 4.95141L6.91155 2.00979C6.87192 1.92925 6.80672 1.86405 6.72618 1.82442C6.52419 1.7247 6.27874 1.8078 6.17774 2.00979L4.72675 4.95141L1.48087 5.42314C1.39138 5.43593 1.30956 5.47811 1.24692 5.54203C1.17119 5.61987 1.12946 5.72459 1.1309 5.83318C1.13233 5.94177 1.17682 6.04535 1.25459 6.12115L3.60303 8.41079L3.0482 11.6439C3.03519 11.7191 3.04351 11.7964 3.07222 11.8672C3.10093 11.9379 3.14889 11.9991 3.21064 12.044C3.2724 12.0888 3.34549 12.1155 3.42162 12.1209C3.49775 12.1264 3.57388 12.1103 3.64138 12.0747L6.54465 10.5483L9.44792 12.0747C9.52718 12.1169 9.61922 12.131 9.70743 12.1156C9.92988 12.0773 10.0795 11.8663 10.0411 11.6439L9.48627 8.41079L11.8347 6.12115C11.8986 6.05851 11.9408 5.97669 11.9536 5.88721C11.9881 5.66348 11.8321 5.45638 11.6084 5.42314Z" fill="#FF6480"/>
<path d="M26.335 5.42314L23.0891 4.95141L21.6381 2.00979C21.5985 1.92925 21.5333 1.86405 21.4527 1.82442C21.2508 1.7247 21.0053 1.8078 20.9043 2.00979L19.4533 4.95141L16.2074 5.42314C16.1179 5.43593 16.0361 5.47811 15.9735 5.54203C15.8978 5.61987 15.856 5.72459 15.8575 5.83318C15.8589 5.94177 15.9034 6.04535 15.9812 6.12115L18.3296 8.41079L17.7748 11.6439C17.7617 11.7191 17.7701 11.7964 17.7988 11.8672C17.8275 11.9379 17.8754 11.9991 17.9372 12.044C17.999 12.0888 18.0721 12.1155 18.1482 12.1209C18.2243 12.1264 18.3004 12.1103 18.3679 12.0747L21.2712 10.5483L24.1745 12.0747C24.2537 12.1169 24.3458 12.131 24.434 12.1156C24.6564 12.0773 24.806 11.8663 24.7677 11.6439L24.2128 8.41079L26.5613 6.12115C26.6252 6.05851 26.6674 5.97669 26.6802 5.88721C26.7147 5.66348 26.5587 5.45638 26.335 5.42314Z" fill="#FF6480"/>
<path d="M41.0635 5.42314L37.8176 4.95141L36.3666 2.00979C36.327 1.92925 36.2618 1.86405 36.1813 1.82442C35.9793 1.7247 35.7338 1.8078 35.6328 2.00979L34.1818 4.95141L30.9359 5.42314C30.8465 5.43593 30.7646 5.47811 30.702 5.54203C30.6263 5.61987 30.5845 5.72459 30.586 5.83318C30.5874 5.94177 30.6319 6.04535 30.7097 6.12115L33.0581 8.41079L32.5033 11.6439C32.4903 11.7191 32.4986 11.7964 32.5273 11.8672C32.556 11.9379 32.604 11.9991 32.6657 12.044C32.7275 12.0888 32.8006 12.1155 32.8767 12.1209C32.9528 12.1264 33.029 12.1103 33.0965 12.0747L35.9997 10.5483L38.903 12.0747C38.9823 12.1169 39.0743 12.131 39.1625 12.1156C39.385 12.0773 39.5345 11.8663 39.4962 11.6439L38.9413 8.41079L41.2898 6.12115C41.3537 6.05851 41.3959 5.97669 41.4087 5.88721C41.4432 5.66348 41.2872 5.45638 41.0635 5.42314Z" fill="#FF6480"/>
<path d="M55.7901 5.42314L52.5442 4.95141L51.0932 2.00979C51.0536 1.92925 50.9884 1.86405 50.9078 1.82442C50.7058 1.7247 50.4604 1.8078 50.3594 2.00979L48.9084 4.95141L45.6625 5.42314C45.573 5.43593 45.4912 5.47811 45.4286 5.54203C45.3528 5.61987 45.3111 5.72459 45.3125 5.83318C45.314 5.94177 45.3585 6.04535 45.4362 6.12115L47.7847 8.41079L47.2298 11.6439C47.2168 11.7191 47.2252 11.7964 47.2539 11.8672C47.2826 11.9379 47.3305 11.9991 47.3923 12.044C47.454 12.0888 47.5271 12.1155 47.6033 12.1209C47.6794 12.1264 47.7555 12.1103 47.823 12.0747L50.7263 10.5483L53.6296 12.0747C53.7088 12.1169 53.8009 12.131 53.8891 12.1156C54.1115 12.0773 54.2611 11.8663 54.2227 11.6439L53.6679 8.41079L56.0163 6.12115C56.0803 6.05851 56.1225 5.97669 56.1352 5.88721C56.1698 5.66348 56.0138 5.45638 55.7901 5.42314Z" fill="#FF6480"/>
<path d="M70.5166 5.42314L67.2708 4.95141L65.8198 2.00979C65.7801 1.92925 65.7149 1.86405 65.6344 1.82442C65.4324 1.7247 65.1869 1.8078 65.0859 2.00979L63.635 4.95141L60.3891 5.42314C60.2996 5.43593 60.2178 5.47811 60.1551 5.54203C60.0794 5.61987 60.0377 5.72459 60.0391 5.83318C60.0405 5.94177 60.085 6.04535 60.1628 6.12115L62.5112 8.41079L61.9564 11.6439C61.9434 11.7191 61.9517 11.7964 61.9804 11.8672C62.0091 11.9379 62.0571 11.9991 62.1188 12.044C62.1806 12.0888 62.2537 12.1155 62.3298 12.1209C62.406 12.1264 62.4821 12.1103 62.5496 12.0747L65.4529 10.5483L68.3561 12.0747C68.4354 12.1169 68.5274 12.131 68.6156 12.1156C68.8381 12.0773 68.9877 11.8663 68.9493 11.6439L68.3945 8.41079L70.7429 6.12115C70.8068 6.05851 70.849 5.97669 70.8618 5.88721C70.8963 5.66348 70.7404 5.45638 70.5166 5.42314Z" fill="#FF6480"/>
</svg>
