<?xml version="1.0" encoding="UTF-8"?><svg id="a" xmlns="http://www.w3.org/2000/svg" viewBox="0 0 500 500"><defs><style>.b{fill:#fff;}</style></defs><g><path class="b" d="M88.69,147.01c-.99,0-1.91,.25-2.73,.74-6.13,3.48-11.88,14.98-17.26,34.52-3.23,11.84-4.84,21.77-4.84,29.8,0,3.81,.19,6.77,.56,8.88,.37,2.11,1.59,3.17,3.66,3.17,9.52,0,14.28-2.44,14.28-7.33l1.24-23.22c0-1.41,.85-6.04,2.55-13.9,1.7-7.86,2.87-14.28,3.54-19.24,.33-2.48,.5-5.34,.5-8.57s-.5-4.84-1.49-4.84Z"/><path class="b" d="M141.39,305.07c.02,.38,.14,.72,.35,1.03,1.49,2.26,6.04,4.18,13.67,5.76,4.62,.94,8.47,1.32,11.55,1.12,1.46-.09,2.59-.24,3.39-.44,.8-.2,1.17-.69,1.12-1.48-.24-3.65-4.22-4.69-6.1-4.56l-6-.63c-.54,.04-2.34-.17-5.4-.63-3.06-.45-5.55-.75-7.47-.88-.96-.06-2.06-.06-3.3,.02s-1.84,.31-1.82,.69Z"/><path class="b" d="M143.69,325.43c.18,.34,.43,.6,.75,.79,2.3,1.43,7.24,1.26,14.82-.51,4.59-1.08,8.24-2.36,10.95-3.83,1.29-.7,2.25-1.31,2.89-1.82,.64-.51,.78-1.12,.4-1.82-1.75-3.21-5.8-2.48-7.45-1.58l-5.71,1.95c-.47,.26-2.2,.82-5.16,1.69-2.97,.87-5.35,1.65-7.15,2.34-.9,.34-1.89,.81-2.98,1.4s-1.54,1.06-1.36,1.39Z"/><path class="b" d="M153.42,344.51c.3,.24,.63,.38,1,.43,2.67,.43,7.16-1.65,13.47-6.22,3.81-2.78,6.68-5.37,8.61-7.78,.91-1.14,1.57-2.08,1.96-2.8,.39-.72,.28-1.33-.34-1.83-2.86-2.28-6.31-.04-7.48,1.43l-4.51,4.01c-.34,.42-1.7,1.61-4.1,3.56-2.4,1.95-4.29,3.6-5.68,4.93-.7,.67-1.43,1.48-2.21,2.45s-1.01,1.57-.72,1.81Z"/><path class="b" d="M125.94,137.57c-6.87-5.88-16.47-8.77-28.8-8.69-6.54,0-12.77,1.28-18.68,3.85-5.92,2.57-10.24,5.34-12.97,8.32-2.73,3.23-4.1,5.55-4.1,6.95,0,.91,.75,1.37,2.24,1.37s3.12-.45,4.9-1.37c1.78-.91,3.79-1.9,6.02-2.98,6.04-2.9,12.52-4.34,19.43-4.34s12.21,1.45,15.89,4.34c3.68,2.9,5.52,7.08,5.52,12.54,0,8.53-2.11,14.61-6.33,18.25-1.82,1.57-3.81,2.65-5.96,3.23-2.15,.58-4.14,1.01-5.96,1.3-1.82,.29-3.33,.6-4.53,.93-1.2,.33-1.8,1.04-1.8,2.11,0,3.72,4.41,5.59,13.22,5.59s16.16-3.21,22.04-9.62c5.88-6.41,8.81-13.7,8.81-21.85s-2.98-14.79-8.94-19.93Z"/><path class="b" d="M189.01,207.78c.41,2.94,1.1,5.5,2.05,7.7,.95,2.19,2.15,3.93,3.6,5.22,1.45,1.28,3.54,1.92,6.27,1.92s5.94-.78,9.62-2.36c3.68-1.57,7.03-3.58,10.06-6.02,3.02-2.44,5.53-5.13,7.51-8.07,.02-.03,.03-.05,.05-.08,.06,.6,.13,1.17,.2,1.69,.41,2.94,1.1,5.5,2.05,7.7,.95,2.19,2.15,3.93,3.6,5.22,1.45,1.28,3.54,1.92,6.27,1.92s5.94-.78,9.62-2.36c3.68-1.57,7.03-3.58,10.06-6.02,1.1-.89,2.11-1.83,3.08-2.78,.73,2.89,2.21,5.15,4.5,6.76,3.35,2.36,7.84,3.54,13.47,3.54,6.95,0,12.5-2.85,16.64-8.57-.42,2.15-1.2,5.71-2.36,10.68-4.72,1.16-9.15,2.13-13.28,2.92-4.14,.79-7.76,1.7-10.86,2.73-3.1,1.03-5.55,2.34-7.32,3.91-1.78,1.57-2.67,3.68-2.67,6.33,0,4.72,1.92,8.65,5.77,11.79,3.85,3.14,8.5,4.72,13.97,4.72,8.11,0,14.15-2.4,18.13-7.2,1.82-2.23,3.31-4.84,4.47-7.82,1.16-2.98,2.23-6.13,3.23-9.44,8.44-3.89,15.58-9.31,21.42-16.26,5.83-6.95,8.75-13.04,8.75-18.25,0-2.65-.58-3.97-1.74-3.97-.75,0-1.74,.72-2.98,2.17-1.24,1.45-2.77,3.25-4.59,5.4-5.3,6.13-10.64,11.3-16.02,15.52,7.03-23.42,10.63-38.03,10.8-43.83,0-1.74-1.04-4.2-3.1-7.39-2.07-3.18-4.26-4.82-6.58-4.9-2.32,.08-3.89,1.12-4.72,3.1-.5,1.16-1.68,4.72-3.54,10.68s-3.87,13.53-6.02,22.72c-1.16,3.31-2.57,6.08-4.22,8.32-1.66,2.23-4.22,3.35-7.7,3.35s-5.21-1.49-5.21-4.47c-.08-3.89,1.53-11.55,4.84-22.97,.66-2.24,.99-4.36,.99-6.39s-.08-3.79-.25-5.28c-.5-4.97-2.61-7.45-6.33-7.45-4.39,0-7.86,.99-10.43,2.98l-3.6,29.42c-.04,.08-.08,.15-.12,.23-.65,.58-1.35,1.37-2.11,2.38-1.82,2.4-4.8,4.9-8.94,7.51-4.14,2.61-7,3.91-8.57,3.91-1.91,0-2.86-3.31-2.86-9.93s.87-14.98,2.61-25.08l12.42,.62c.91,.08,1.72-.99,2.42-3.23,.7-2.23,1.05-4.1,1.05-5.59,0-.58-.06-1.01-.19-1.3-.12-.29-.95-.43-2.48-.43s-5.19-.08-10.99-.25l5.09-8.94c-.42-1.32-.79-2.56-1.12-3.72-1.33-4.14-3.64-6.25-6.95-6.33-4.14,0-8.19,6.38-12.17,19.12-1.33,.08-2.57,.12-3.72,.12h-2.98c-1.41,1.66-2.3,3.13-2.67,4.41-.37,1.28-.56,2.92-.56,4.9,0,.83,.5,1.24,1.49,1.24h5.59c-1.81,8.2-2.78,14.85-2.95,19.97-.85,.58-1.81,1.57-2.89,2.99-1.82,2.4-4.8,4.9-8.94,7.51-4.14,2.61-7,3.91-8.57,3.91-1.91,0-2.86-3.31-2.86-9.93s.87-14.98,2.61-25.08l12.42,.62c.91,.08,1.72-.99,2.42-3.23,.7-2.23,1.05-4.1,1.05-5.59,0-.58-.06-1.01-.19-1.3-.12-.29-.95-.43-2.48-.43s-5.2-.08-10.99-.25l5.09-8.94c-.42-1.32-.79-2.56-1.12-3.72-1.33-4.14-3.64-6.25-6.95-6.33-4.14,0-8.19,6.38-12.17,19.12-1.33,.08-2.57,.12-3.72,.12h-2.98c-1.41,1.66-2.3,3.13-2.67,4.41-.37,1.28-.56,2.92-.56,4.9,0,.83,.5,1.24,1.49,1.24h5.59c-1.83,8.3-2.8,15-2.95,20.15-.49,.4-1.03,.94-1.64,1.64-1.41,1.61-3.23,3.37-5.46,5.28-6.04,5.13-12.29,7.7-18.75,7.7-3.06-.08-5.79-.74-8.19-1.99-2.4-1.24-3.64-3.35-3.72-6.33v-3.1c3.31-1.49,6.68-2.83,10.12-4.03,3.43-1.2,6.56-2.56,9.37-4.1,2.81-1.53,5.11-3.43,6.89-5.71,1.78-2.28,2.67-5.19,2.67-8.75s-1.22-6.45-3.66-8.69c-2.44-2.23-5.92-3.35-10.43-3.35s-8.75,1.01-12.73,3.04c-3.97,2.03-7.47,4.86-10.49,8.51-3.02,3.64-5.44,7.97-7.26,12.97-1.82,5.01-2.73,9.83-2.73,14.46s.62,8.19,1.86,10.68c3.56,7.12,10.26,10.68,20.11,10.68,12.41,0,22.18-3.35,29.3-10.06,2.21-2.09,3.94-4.21,5.19-6.37,.05,.43,.1,.83,.15,1.22Zm91.75,38.92c-1.74,.08-3.54-.42-5.4-1.49-1.86-1.08-2.79-2.4-2.79-3.97-.08-1.24,1.53-2.11,4.84-2.61,1.65-.25,3.64-.52,5.96-.81,2.32-.29,4.97-.73,7.95-1.3-3.15,6.79-6.66,10.18-10.55,10.18Zm-120.3-73c2.56,0,3.85,1.04,3.85,3.1-.08,2.32-1.37,4.39-3.85,6.21-1.16,.83-2.5,1.7-4.03,2.61-1.53,.91-3.17,1.95-4.9,3.11,1.66-10.01,4.64-15.02,8.94-15.02Z"/><path class="b" d="M437.61,299.34c-.74,0-1.82,.81-3.23,2.42-1.41,1.61-3.23,3.37-5.46,5.28-6.04,5.13-12.29,7.7-18.75,7.7-3.06-.08-5.79-.74-8.19-1.99-2.4-1.24-3.64-3.35-3.72-6.33v-3.1c3.31-1.49,6.68-2.83,10.12-4.03,3.43-1.2,6.56-2.56,9.37-4.1,2.81-1.53,5.11-3.43,6.89-5.71,1.78-2.28,2.67-5.19,2.67-8.75s-1.22-6.45-3.66-8.69c-2.44-2.23-5.92-3.35-10.43-3.35s-8.75,1.01-12.73,3.04c-3.97,2.03-7.47,4.86-10.49,8.51-3.02,3.64-5.44,7.97-7.26,12.97-1.36,3.75-2.22,7.4-2.56,10.94-.85,.87-1.73,1.77-2.65,2.72-1.82,1.86-3.64,3.58-5.46,5.15-1.82,1.57-3.35,2.36-4.59,2.36-.91,0-1.35-.72-1.3-2.17,.04-1.45,.64-4.28,1.8-8.5,1.16-4.22,2.17-7.82,3.04-10.8,.87-2.98,1.68-6.08,2.42-9.31-2.4-7.03-4.8-10.55-7.2-10.55-.74,0-1.61,.25-2.61,.75l-3.23,1.61c-3.15,1.57-5.92,2.36-8.32,2.36-1.74,0-3.19-.21-4.34-.62-.74-2.98-1.94-5.59-3.6-7.82-2.32-3.23-5.01-4.84-8.07-4.84-5.96,0-8.94,2.77-8.94,8.32,0,2.65,1.9,5.79,5.71,9.44-2.11,5.24-2.11,9.94-4.17,13.94-2.23,4.32-4.36,6.26-5.06,7.01-7.32,7.47-11.98,11.21-13.99,11.21-1.74,0-2.61-3.43-2.61-10.31s.33-12.21,.99-16.02c2.23-3.81,3.93-7.08,5.09-9.81,0-2.23-1.31-4.61-3.91-7.14-2.61-2.52-5.36-3.79-8.26-3.79-1.49,0-2.81,1.2-3.97,3.6-2.4-1.32-5.5-1.99-9.31-1.99s-7.43,.54-10.86,1.61c-3.44,1.08-7.14,3.31-11.11,6.7-7.49,6.49-11.97,14.9-13.46,25.21-1.73,2.25-3.65,4.15-5.78,5.7-6.54,4.8-13.53,7.2-20.98,7.2-12.09,0-18.13-7.57-18.13-22.72,0-10.93,2.94-21.39,8.82-31.41,6.87,2.65,13.51,3.97,19.93,3.97s11.52-1.49,15.33-4.47c3.81-2.98,5.71-6.66,5.71-11.05,0-2.9-.5-5.34-1.49-7.33-2.81-5.29-8.96-7.94-18.44-7.94s-18.31,3.48-26.51,10.43c-1.08-.66-2.11-1.49-3.11-2.48l-3.85-3.72c-1.49-1.49-2.82-2.28-3.97-2.36-1.66,0-2.48,1.12-2.48,3.35,0,1.24,.56,3.08,1.68,5.53,1.12,2.44,2.63,4.78,4.53,7.02-2.48,3.06-4.72,6.42-6.7,10.06-5.96,11.09-8.94,22.8-8.94,35.14,0,10.02,3.1,17.84,9.31,23.47,6.21,5.63,14.94,8.44,26.2,8.44,9.27,0,17.3-2.23,24.09-6.7,2.09-1.36,3.93-2.93,5.51-4.71,.87,2.17,2.17,4.16,3.93,5.95,3.56,3.64,8.26,5.46,14.09,5.46s10.49-1.14,13.97-3.41c3.48-2.28,6.29-5.19,8.44-8.75,1.49,7.7,4.43,11.55,8.81,11.55,3.23,0,6.54-.78,9.93-2.36,3.39-1.57,6.47-3.58,9.25-6.02,.31-.27,.59-.56,.88-.83,.06-.05,.12-.08,.18-.14,3.04-2.69,9.05-8.4,11.87-11.48,2.84-2.85,5.93-7.04,7.47-9.52,1.72-2.78,3.49-6.1,4.24-9.25,.99,.17,2.63,.25,4.9,.25s4.32-.37,6.15-1.12c-3.89,7.78-5.84,16.02-5.84,24.71,.08,4.39,1.08,8.11,2.98,11.17,1.9,3.06,4.76,4.59,8.57,4.59,6.46,.08,12.19-2.65,17.19-8.19,.67-.74,1.29-1.48,1.87-2.23,.02,.04,.03,.08,.05,.12,3.56,7.12,10.26,10.68,20.11,10.68,12.42,0,22.18-3.35,29.3-10.06,2.9-2.73,4.97-5.52,6.21-8.38,1.24-2.86,1.86-5.44,1.86-7.76s-.58-3.48-1.74-3.48Zm-29.55-19.62c2.56,0,3.85,1.04,3.85,3.1-.08,2.32-1.37,4.39-3.85,6.21-1.16,.83-2.5,1.7-4.03,2.61-1.53,.91-3.17,1.95-4.9,3.11,1.65-10.01,4.63-15.02,8.94-15.02Zm-170.83-33.03c4.05,0,6.08,1.61,6.08,4.84,0,2.73-2.48,4.1-7.45,4.1s-9.56-.7-13.78-2.11c4.55-4.55,9.6-6.83,15.15-6.83Zm55.12,54.5c-.74,2.65-1.7,4.88-2.86,6.7-3.31,5.3-7.49,7.99-12.54,8.07-4.72,0-7.08-3.18-7.08-9.56,0-7.78,2.48-14.23,7.45-19.37,4.97-5.13,10.8-8.36,17.51-9.68-1.66,6.62-2.48,14.57-2.48,23.84Z"/></g><path class="b" d="M382.77,185.38c-.06-.38-.22-.71-.46-.99-1.71-2.1-6.44-3.54-14.19-4.32-4.69-.46-8.56-.43-11.6,.08-1.44,.24-2.55,.51-3.33,.78-.78,.28-1.1,.81-.96,1.59,.61,3.61,4.68,4.23,6.53,3.91h6.04c.53-.08,2.34-.06,5.43,.08,3.09,.14,5.6,.17,7.52,.1,.96-.03,2.06-.16,3.28-.36s1.8-.5,1.74-.88Z"/><path class="b" d="M378.39,165.36c-.22-.31-.49-.55-.83-.7-2.43-1.19-7.33-.51-14.69,2.03-4.45,1.55-7.95,3.2-10.5,4.94-1.21,.83-2.1,1.53-2.69,2.11-.59,.58-.66,1.19-.21,1.85,2.07,3.02,6.02,1.87,7.57,.81l5.48-2.53c.45-.31,2.1-1.04,4.96-2.22,2.86-1.17,5.15-2.19,6.87-3.06,.86-.44,1.8-1,2.82-1.71s1.43-1.21,1.21-1.52Z"/><path class="b" d="M366.75,147.38c-.32-.21-.67-.32-1.04-.33-2.7-.15-6.95,2.38-12.75,7.57-3.5,3.16-6.09,6.03-7.76,8.63-.79,1.23-1.35,2.23-1.66,2.99-.32,.76-.14,1.35,.53,1.78,3.08,1.98,6.28-.61,7.29-2.19l4.07-4.46c.29-.45,1.53-1.78,3.71-3.97,2.18-2.19,3.9-4.02,5.14-5.49,.62-.73,1.27-1.62,1.94-2.67s.85-1.67,.52-1.88Z"/></svg>